<!-- イラスト：ソコスト https://soco-st.com/25413 （商用可・クレジット不要。サイズ・トリミングのみ変更） -->
<svg xmlns="http://www.w3.org/2000/svg" viewBox="0.0 0.0 117.723 349.431" width="117.723" height="349.431"><defs><style>.d{fill:none;}.e{fill:#c84c4a;}.f{fill:#fce0cd;}.g{fill:#efc0a0;}.h{fill:#f2635f;}.i{fill:#645d5c;}</style></defs><g id="c"><path class="f" d="M87.991,44.825c.89-.804,2.211-1.192,3.445-1.008s2.358.929,2.923,1.943c.399.711.528,1.522.602,2.312.27,3.116-.344,6.291-1.756,9.13-.688,1.383-1.584,2.707-2.831,3.715-.957.764-1.919,1.197-3.309.774,0,0-.182-.055-.497-.15-.305,1.2-.707,2.246-.887,2.757-1.032,2.616-7.069,12.254-14.488,14.976.06.45.14.96.25,1.591.36,2.12.96,4.52,3.78,6.08.147.046,2.39,1.108,3.527,1.639-.391.124-.758.326-1.088.592-4.543,3.664-12.504,5.983-18.634,6.076-.123.002-.246.003-.368.002-6.627-.022-14.106-2.507-18.6-6.07-.313-.248-.659-.438-1.023-.565,1.1-.504,3.46-1.624,3.619-1.672,2.81-1.56,3.41-3.96,3.78-6.08.125-.71.212-1.265.258-1.741-3.215-1.509-6.188-3.875-8.805-6.798-3.119-3.484-5.013-7.214-6.138-10.429l-.734.198c-1.572.423-2.773-.415-3.73-1.179-1.247-1.008-2.143-2.332-2.831-3.715-1.412-2.839-2.026-6.014-1.756-9.13.074-.79.203-1.601.602-2.312.565-1.014,1.689-1.759,2.923-1.943s2.554.204,3.445,1.008c0,0-6.284-24.65,29.111-24.65,36.243,0,29.211,24.65,29.211,24.65Z"/><path class="d" d="M91.182,43.573c.444-2.666.708-5.581.558-8.991-.237-5.406-1.707-10.725-4.552-15.312-1.192-1.922-2.605-3.698-4.188-5.298-.638-.644-1.606-1.586-2.266-2.159-1.052-.914-3.391-2.491-5.511-3.655-1.545-.848-3.155-1.573-4.813-2.158-3.666-1.293-7.537-1.871-11.41-1.871-7.644,0-14.135,2.223-19.329,5.949-6.031,4.326-12.861,12.032-13.408,24.504-.131,2.981.443,7.463.697,8.994"/><path class="g" d="M52.963,67.757c1.561,1.528,3.979,2.015,6.084,2.013s4.524-.485,6.085-2.013c.749-.733.79-2.103,0-2.828-.805-.739-2.029-.782-2.828,0-.077.075-.376.315-.048.062.34-.262-.05.025-.147.085-.121.074-.246.143-.373.207-.083.042-.18.075-.259.122.107-.063.455-.173.14-.065-.408.14-.817.26-1.241.34-.118.022-.544.156-.035.016-.119.033-.259.029-.381.039-.303.025-.607.037-.912.037-.278,0-.557-.01-.835-.031-.092-.007-.373-.073-.46-.045.16-.051.364.056.033-.004-.427-.077-.85-.185-1.258-.333-.162-.059-.418-.231.09.046-.07-.038-.146-.066-.217-.101-.141-.069-.28-.145-.414-.227-.102-.063-.197-.141-.299-.202.573.344.27.218.105.056-.748-.733-2.092-.802-2.828,0-.726.791-.799,2.046,0,2.828h0Z"/><path class="g" d="M57.899,54.676c.244.931.479,1.877.619,2.831l-.071-.532c.017.131.024.259.011.391l.071-.532c-.009.061-.023.118-.043.176l.202-.478c-.018.041-.037.076-.062.113l.313-.405c-.029.035-.057.063-.092.091l.405-.313c-.072.046-.147.083-.224.119l.478-.202c-.123.052-.246.089-.378.11l.532-.071c-.119.014-.236.013-.355,0l.532.071c-.134-.019-.265-.051-.399-.069-.266-.083-.532-.095-.798-.036-.266.012-.514.091-.744.237-.415.243-.811.718-.919,1.195-.117.512-.091,1.087.202,1.541.26.403.695.852,1.195.919.353.048.696.136,1.055.152.577.025,1.105-.156,1.617-.394.645-.299,1.153-.91,1.324-1.603.147-.593.087-1.071-.014-1.665-.154-.912-.365-1.816-.599-2.71-.127-.483-.49-.944-.919-1.195s-1.061-.357-1.541-.202c-.484.157-.951.457-1.195.919-.253.48-.342,1.007-.202,1.541h0Z"/><path class="i" d="M43.46,47.036c-.473,1.536-.165,5.07,2.746,5.371,3.847-.023,4.051-4.296,2.756-6.305-1.06-1.645-4.178-2.329-5.502.934Z"/><path class="i" d="M74.264,47.036c.473,1.536.165,5.07-2.746,5.371-3.847-.023-4.052-4.296-2.757-6.305,1.06-1.645,4.178-2.329,5.502.934Z"/><path class="i" d="M24.748,30.002c-.102.979-.174,1.98-.217,3.001-.139,3.289.29,7.067,1.305,10.893.127-.034.257-.06.389-.08,1.234-.184,2.554.204,3.445,1.008l1.522,1.373c.687-5.154,2.381-9.306,5.429-14.171,1.799-2.305,3.089-2.907,4.872-2.899,6.553.03,13.223.021,19.487-1.398,4.04-.915,7.835-2.412,11.112-4.377,2.065,1.695,3.99,3.276,3.99,3.276,1.574,1.293,3.103,2.793,4.526,3.731.979.645,1.785,1.406,2.566,2.22.808.842,1.114,1.969,1.37,3.108.729,3.251,1.235,6.203,1.713,10.375l.034.295c.851-.768,1.701-1.536,1.701-1.536.89-.804,2.211-1.192,3.445-1.008.087.013.173.029.259.047,1.007-4.036,1.433-7.11,1.275-10.86-.549-12.996-6.917-21.216-13.251-25.999-5.68-4.246-12.323-7.005-20.97-7.005-7.99,0-14.287,1.756-19.937,5.635-1.747,1.199-3.71,2.726-5.405,5.435-4.729,3.62-7.778,10.445-8.659,18.933Z"/><path class="i" d="M12.111,346.536c-1.262-1.162-2.168-2.724-2.311-4.422-.247-2.929,1.53-5.703,3.614-7.777,5.345-5.32,11.012-10.543,15.733-16.366l1.415-2.63s.051-.095.138-.263c4.493.479,13.389.536,18.761.108.434.601.698.96.698.96l.677.922c1.449,1.546,1.721,6.843,1.774,8.245.109,2.88.581,6.685-1.704,8.815-1.642,1.53-5.161,3.318-7.307,3.975-3.507,1.072-5.316,3.331-7.876,5.755-1.034.979-2.112,1.898-3.338,2.605-4.086,2.355-8.944,3.409-13.631,2.797-2.05-.267-4.102-.85-5.793-2.039-.297-.209-.581-.438-.85-.685Z"/><path class="i" d="M83.805,345.426c-.628-.486-1.223-1.017-1.805-1.568-2.56-2.425-4.37-4.684-7.876-5.755-2.147-.656-5.666-2.444-7.307-3.975-2.285-2.13-1.812-5.934-1.704-8.815.053-1.401.325-6.698,1.774-8.245l.677-.922s.285-.388.748-1.03c5.217.566,13.834.42,18.652-.152.125.242.197.376.197.376l1.415,2.63c4.722,5.823,10.388,11.045,15.733,16.366,2.083,2.073,3.861,4.848,3.614,7.777-.174,2.06-1.469,3.918-3.161,5.107s-3.743,1.772-5.793,2.039c-4.687.611-9.546-.442-13.631-2.797-.536-.309-1.045-.659-1.533-1.037Z"/><path class="h" d="M20.098,205.051c.427-5.159.767-9.568.986-12.901-7.199-.651-13.439-5.897-16.809-12.307C.867,173.359,0,165.834,0,158.509c.001-16.596,4.091-39.584,8.64-48.867,3.544-6.676,8.843-12.8,16.003-16.582,3.914-2.067,8.256-3.38,12.623-4.572.263-.229.527-.459.79-.689,1.517-1.819,4.021-4.625,5.3-6.171.108-.131.26-.225.416-.276.322-.106.657.077.958.242,1.89,1.03,8.209,3.193,14.132,3.193,5.922,0,12.242-2.162,14.132-3.193.302-.164.636-.347.958-.242.156.051.308.146.417.276,1.279,1.547,3.783,4.353,5.299,6.172.264.229.527.459.791.688,4.366,1.191,8.709,2.504,12.623,4.571,7.161,3.782,12.458,9.906,16.003,16.582,4.548,9.283,8.638,32.271,8.639,48.867,0,7.326-.867,14.85-4.275,21.335-3.3,6.278-9.354,11.44-16.366,12.261,1.478,22.55,8.55,94.857,10.475,114.877.238,2.473-1.493,7.437-6.492,7.971-9.289.993-26.301,1.045-41.98.853-15.679.191-32.692.139-41.981-.853-4.999-.534-6.73-5.498-6.492-7.971,1.64-17.057,7.016-72.069,9.486-101.931Z"/><path class="e" d="M99.011,177.064c-.555-18.037-1.146-36.073-1.778-54.108-.042-1.186-.083-2.371-.126-3.557-.092-2.567-4.092-2.579-4,0,.451,12.605.869,25.212,1.277,37.819.214,6.615.423,13.23.626,19.846.079,2.568,4.079,2.579,4,0h0Z"/><path class="e" d="M20.577,120.676c-.353,12.333-.68,24.666-1,36.999-.167,6.463-.33,12.925-.49,19.388-.063,2.575,3.937,2.574,4,0,.435-17.647.897-35.293,1.392-52.939.032-1.149.064-2.299.097-3.448.074-2.575-3.926-2.573-4,0h0Z"/><path class="e" d="M56.862,97.118c0,9.037,0,18.074,0,27.111,0,2.574,4,2.578,4,0,0-9.037,0-18.074,0-27.111,0-2.574-4-2.578-4,0h0Z"/><path class="e" d="M36.86,88.952c4.266,4.55,10.888,6.988,16.932,7.891,6.418.959,12.957-.053,18.926-2.562,2.988-1.255,5.95-2.908,8.108-5.376,1.688-1.93-1.13-4.771-2.828-2.828-2.088,2.387-5.036,3.914-7.975,4.996-3.351,1.233-6.915,2.043-10.49,2.166-3.782.129-7.564-.602-11.123-1.852-3.2-1.123-6.378-2.764-8.721-5.263-1.765-1.882-4.589.951-2.828,2.828h0Z"/></g></svg>